<svg width="125" height="125" viewBox="0 0 125 125" fill="none" xmlns="http://www.w3.org/2000/svg">
<g clip-path="url(#clip0_3_35)">
<rect width="125" height="125" fill="white"/>
<path fill-rule="evenodd" clip-rule="evenodd" d="M59.8874 19.6357C55.206 22.0318 50.9954 25.5235 47.6675 30.048C36.2142 45.6194 39.5525 67.5273 55.1239 78.9806C70.6954 90.434 92.6032 87.0956 104.057 71.5242C106.781 67.82 108.669 63.7573 109.754 59.5621C111.883 71.9923 109.152 85.2377 101.089 96.1991C85.3443 117.605 55.2272 122.195 33.821 106.45C12.4147 90.7046 7.82539 60.5875 23.5705 39.1812C32.4725 27.0784 45.9688 20.3513 59.8874 19.6357Z" fill="#6C12AC"/>
<path d="M5.5 95.002C-4.07581 95.002 -19 99.5034 -19 99.5034V111.002L51 126L122 108.502V99.5034C122 99.5034 107.576 95.0021 98 95.0021C88.4242 95.0021 84.5757 99.4487 75 99.5034C65.2371 99.5591 60.7624 94.8883 51 95.002C41.6118 95.1114 37.3887 99.4476 28 99.5034C18.4244 99.5602 15.0758 95.002 5.5 95.002Z" fill="white"/>
</g>
<defs>
<clipPath id="clip0_3_35">
<rect width="125" height="125" fill="white"/>
</clipPath>
</defs>
</svg>
